<svg width="16" height="17" viewBox="0 0 16 17" fill="none" xmlns="http://www.w3.org/2000/svg">
<path d="M10.0004 7.20834C10.0004 8.00399 9.68436 8.76705 9.12176 9.32966C8.55915 9.89227 7.79608 10.2083 7.00043 10.2083C6.20478 10.2083 5.44172 9.89227 4.87911 9.32966C4.3165 8.76705 4.00043 8.00399 4.00043 7.20834C4.00043 6.41269 4.3165 5.64963 4.87911 5.08702C5.44172 4.52441 6.20478 4.20834 7.00043 4.20834C7.79608 4.20834 8.55915 4.52441 9.12176 5.08702C9.68436 5.64963 10.0004 6.41269 10.0004 7.20834ZM9.00043 7.20834C9.00043 6.67791 8.78972 6.1692 8.41465 5.79413C8.03958 5.41906 7.53087 5.20834 7.00043 5.20834C6.47 5.20834 5.96129 5.41906 5.58622 5.79413C5.21115 6.1692 5.00043 6.67791 5.00043 7.20834C5.00043 7.73877 5.21115 8.24748 5.58622 8.62255C5.96129 8.99763 6.47 9.20834 7.00043 9.20834C7.53087 9.20834 8.03958 8.99763 8.41465 8.62255C8.78972 8.24748 9.00043 7.73877 9.00043 7.20834ZM11.9504 12.1633C13.2633 10.8498 14.0009 9.06855 14.0009 7.21134C14.0009 5.35413 13.2633 3.57293 11.9504 2.25934C11.3005 1.60902 10.5289 1.09313 9.67954 0.74115C8.8302 0.389173 7.91982 0.208008 7.00043 0.208008C6.08105 0.208008 5.17067 0.389173 4.32133 0.74115C3.47198 1.09313 2.70032 1.60902 2.05043 2.25934C0.737527 3.57293 0 5.35413 0 7.21134C0 9.06855 0.737527 10.8498 2.05043 12.1633L3.57143 13.6623L5.61443 15.6473L5.74743 15.7653C6.52243 16.3933 7.65743 16.3533 8.38743 15.6473L10.8224 13.2773L11.9504 12.1633ZM2.75543 2.96434C3.31281 2.40672 3.97458 1.96438 4.70295 1.66258C5.43132 1.36079 6.21202 1.20545 7.00043 1.20545C7.78885 1.20545 8.56955 1.36079 9.29792 1.66258C10.0263 1.96438 10.6881 2.40672 11.2454 2.96434C12.3401 4.05979 12.9696 5.53566 13.0024 7.08399C13.0352 8.63233 12.4688 10.1335 11.4214 11.2743L11.2454 11.4583L9.92443 12.7623L7.69443 14.9303L7.60043 15.0103C7.42754 15.1406 7.21693 15.2111 7.00043 15.2111C6.78394 15.2111 6.57333 15.1406 6.40043 15.0103L6.30743 14.9303L3.32743 12.0253L2.75543 11.4583L2.57943 11.2753C1.53208 10.1345 0.965713 8.63333 0.998506 7.085C1.0313 5.53666 1.66072 4.05979 2.75543 2.96434Z" fill="white"/>
</svg>
