<svg width="306" height="142" viewBox="0 0 306 142" fill="none" xmlns="http://www.w3.org/2000/svg">
<g clip-path="url(#clip0_450_285)">
<path d="M0 12.9651V126.774C0 138.973 13.1501 147.279 24.3994 138.078C24.7781 137.769 24.9922 137.294 24.9922 136.802V35.9567C24.9922 34.4614 26.7689 33.694 27.843 34.7254L56.4466 62.1917C56.5174 62.2598 56.598 62.3244 56.6798 62.3784C71.0195 71.8652 79.1196 54.6976 71.4523 47.9471L22.5891 2.64814C16.6615 -3.15419 0 1.19859 0 12.9651Z" fill="url(#paint0_linear_450_285)"/>
<path d="M124 129.035V15.2258C124 3.02714 110.85 -5.27883 99.6007 3.92152C99.2219 4.2312 99.0077 4.70632 99.0077 5.19783V106.043C99.0077 107.539 97.2312 108.306 96.1569 107.275L67.5534 79.8082C67.4826 79.7402 67.402 79.6756 67.3202 79.6212C52.9805 70.1348 44.8804 87.3024 52.5477 94.0529L101.411 139.352C107.338 145.154 124 140.801 124 129.035Z" fill="url(#paint1_linear_450_285)"/>
</g>
<path d="M137.258 65V47.5H138.783L150.858 62.7H150.058V47.5H151.883V65H150.358L138.308 49.8H139.108V65H137.258ZM157.22 65V51.875H158.995V65H157.22ZM158.12 48.975C157.753 48.975 157.445 48.85 157.195 48.6C156.945 48.35 156.82 48.05 156.82 47.7C156.82 47.35 156.945 47.0583 157.195 46.825C157.445 46.575 157.753 46.45 158.12 46.45C158.487 46.45 158.795 46.5667 159.045 46.8C159.295 47.0333 159.42 47.325 159.42 47.675C159.42 48.0417 159.295 48.35 159.045 48.6C158.812 48.85 158.503 48.975 158.12 48.975ZM169.384 65.125C168.084 65.125 166.917 64.8417 165.884 64.275C164.867 63.6917 164.067 62.9 163.484 61.9C162.901 60.8833 162.609 59.725 162.609 58.425C162.609 57.1083 162.901 55.95 163.484 54.95C164.067 53.95 164.867 53.1667 165.884 52.6C166.917 52.0333 168.084 51.75 169.384 51.75C170.501 51.75 171.509 51.9667 172.409 52.4C173.309 52.8333 174.017 53.4833 174.534 54.35L173.209 55.25C172.759 54.5833 172.201 54.0917 171.534 53.775C170.867 53.4583 170.142 53.3 169.359 53.3C168.426 53.3 167.584 53.5167 166.834 53.95C166.084 54.3667 165.492 54.9583 165.059 55.725C164.626 56.4917 164.409 57.3917 164.409 58.425C164.409 59.4583 164.626 60.3583 165.059 61.125C165.492 61.8917 166.084 62.4917 166.834 62.925C167.584 63.3417 168.426 63.55 169.359 63.55C170.142 63.55 170.867 63.3917 171.534 63.075C172.201 62.7583 172.759 62.275 173.209 61.625L174.534 62.525C174.017 63.375 173.309 64.025 172.409 64.475C171.509 64.9083 170.501 65.125 169.384 65.125ZM179.226 61.6L179.276 59.325L187.451 51.875H189.626L183.851 57.4L182.851 58.25L179.226 61.6ZM177.826 65V46.45H179.601V65H177.826ZM188.001 65L182.526 58.175L183.676 56.8L190.176 65H188.001ZM197.678 65.125C196.411 65.125 195.269 64.8417 194.253 64.275C193.253 63.6917 192.461 62.9 191.878 61.9C191.294 60.8833 191.003 59.725 191.003 58.425C191.003 57.1083 191.294 55.95 191.878 54.95C192.461 53.95 193.253 53.1667 194.253 52.6C195.253 52.0333 196.394 51.75 197.678 51.75C198.978 51.75 200.128 52.0333 201.128 52.6C202.144 53.1667 202.936 53.95 203.503 54.95C204.086 55.95 204.378 57.1083 204.378 58.425C204.378 59.725 204.086 60.8833 203.503 61.9C202.936 62.9 202.144 63.6917 201.128 64.275C200.111 64.8417 198.961 65.125 197.678 65.125ZM197.678 63.55C198.628 63.55 199.469 63.3417 200.203 62.925C200.936 62.4917 201.511 61.8917 201.928 61.125C202.361 60.3417 202.578 59.4417 202.578 58.425C202.578 57.3917 202.361 56.4917 201.928 55.725C201.511 54.9583 200.936 54.3667 200.203 53.95C199.469 53.5167 198.636 53.3 197.703 53.3C196.769 53.3 195.936 53.5167 195.203 53.95C194.469 54.3667 193.886 54.9583 193.453 55.725C193.019 56.4917 192.803 57.3917 192.803 58.425C192.803 59.4417 193.019 60.3417 193.453 61.125C193.886 61.8917 194.469 62.4917 195.203 62.925C195.936 63.3417 196.761 63.55 197.678 63.55ZM213.226 65.125C211.976 65.125 210.851 64.8417 209.851 64.275C208.868 63.7083 208.093 62.925 207.526 61.925C206.96 60.9083 206.676 59.7417 206.676 58.425C206.676 57.0917 206.96 55.925 207.526 54.925C208.093 53.925 208.868 53.15 209.851 52.6C210.851 52.0333 211.976 51.75 213.226 51.75C214.376 51.75 215.401 52.0083 216.301 52.525C217.218 53.0417 217.943 53.8 218.476 54.8C219.026 55.7833 219.301 56.9917 219.301 58.425C219.301 59.8417 219.035 61.05 218.501 62.05C217.968 63.05 217.243 63.8167 216.326 64.35C215.426 64.8667 214.393 65.125 213.226 65.125ZM213.351 63.55C214.285 63.55 215.118 63.3417 215.851 62.925C216.601 62.4917 217.185 61.8917 217.601 61.125C218.035 60.3417 218.251 59.4417 218.251 58.425C218.251 57.3917 218.035 56.4917 217.601 55.725C217.185 54.9583 216.601 54.3667 215.851 53.95C215.118 53.5167 214.285 53.3 213.351 53.3C212.435 53.3 211.61 53.5167 210.876 53.95C210.143 54.3667 209.56 54.9583 209.126 55.725C208.693 56.4917 208.476 57.3917 208.476 58.425C208.476 59.4417 208.693 60.3417 209.126 61.125C209.56 61.8917 210.143 62.4917 210.876 62.925C211.61 63.3417 212.435 63.55 213.351 63.55ZM218.301 65V61.05L218.476 58.4L218.226 55.75V46.45H220.001V65H218.301ZM230.52 65.125C229.153 65.125 227.953 64.8417 226.92 64.275C225.886 63.6917 225.078 62.9 224.495 61.9C223.911 60.8833 223.62 59.725 223.62 58.425C223.62 57.125 223.895 55.975 224.445 54.975C225.011 53.975 225.778 53.1917 226.745 52.625C227.728 52.0417 228.828 51.75 230.045 51.75C231.278 51.75 232.37 52.0333 233.32 52.6C234.286 53.15 235.045 53.9333 235.595 54.95C236.145 55.95 236.42 57.1083 236.42 58.425C236.42 58.5083 236.411 58.6 236.395 58.7C236.395 58.7833 236.395 58.875 236.395 58.975H224.97V57.65H235.445L234.745 58.175C234.745 57.225 234.536 56.3833 234.12 55.65C233.72 54.9 233.17 54.3167 232.47 53.9C231.77 53.4833 230.961 53.275 230.045 53.275C229.145 53.275 228.336 53.4833 227.62 53.9C226.903 54.3167 226.345 54.9 225.945 55.65C225.545 56.4 225.345 57.2583 225.345 58.225V58.5C225.345 59.5 225.561 60.3833 225.995 61.15C226.445 61.9 227.061 62.4917 227.845 62.925C228.645 63.3417 229.553 63.55 230.57 63.55C231.37 63.55 232.111 63.4083 232.795 63.125C233.495 62.8417 234.095 62.4083 234.595 61.825L235.595 62.975C235.011 63.675 234.278 64.2083 233.395 64.575C232.528 64.9417 231.57 65.125 230.52 65.125ZM240.033 65V51.875H241.733V55.45L241.558 54.825C241.924 53.825 242.541 53.0667 243.408 52.55C244.274 52.0167 245.349 51.75 246.633 51.75V53.475C246.566 53.475 246.499 53.475 246.433 53.475C246.366 53.4583 246.299 53.45 246.233 53.45C244.849 53.45 243.766 53.875 242.983 54.725C242.199 55.5583 241.808 56.75 241.808 58.3V65H240.033Z" fill="white"/>
<path d="M136.974 95V77.5H144.099C145.965 77.5 147.599 77.875 148.999 78.625C150.415 79.3583 151.515 80.3833 152.299 81.7C153.082 83.0167 153.474 84.5333 153.474 86.25C153.474 87.9667 153.082 89.4833 152.299 90.8C151.515 92.1167 150.415 93.15 148.999 93.9C147.599 94.6333 145.965 95 144.099 95H136.974ZM138.824 93.4H143.999C145.549 93.4 146.89 93.1 148.024 92.5C149.174 91.8833 150.065 91.0417 150.699 89.975C151.332 88.8917 151.649 87.65 151.649 86.25C151.649 84.8333 151.332 83.5917 150.699 82.525C150.065 81.4583 149.174 80.625 148.024 80.025C146.89 79.4083 145.549 79.1 143.999 79.1H138.824V93.4ZM162.828 95.125C161.461 95.125 160.261 94.8417 159.228 94.275C158.194 93.6917 157.386 92.9 156.803 91.9C156.219 90.8833 155.928 89.725 155.928 88.425C155.928 87.125 156.203 85.975 156.753 84.975C157.319 83.975 158.086 83.1917 159.053 82.625C160.036 82.0417 161.136 81.75 162.353 81.75C163.586 81.75 164.678 82.0333 165.628 82.6C166.594 83.15 167.353 83.9333 167.903 84.95C168.453 85.95 168.728 87.1083 168.728 88.425C168.728 88.5083 168.719 88.6 168.703 88.7C168.703 88.7833 168.703 88.875 168.703 88.975H157.278V87.65H167.753L167.053 88.175C167.053 87.225 166.844 86.3833 166.428 85.65C166.028 84.9 165.478 84.3167 164.778 83.9C164.078 83.4833 163.269 83.275 162.353 83.275C161.453 83.275 160.644 83.4833 159.928 83.9C159.211 84.3167 158.653 84.9 158.253 85.65C157.853 86.4 157.653 87.2583 157.653 88.225V88.5C157.653 89.5 157.869 90.3833 158.303 91.15C158.753 91.9 159.369 92.4917 160.153 92.925C160.953 93.3417 161.861 93.55 162.878 93.55C163.678 93.55 164.419 93.4083 165.103 93.125C165.803 92.8417 166.403 92.4083 166.903 91.825L167.903 92.975C167.319 93.675 166.586 94.2083 165.703 94.575C164.836 94.9417 163.878 95.125 162.828 95.125ZM175.472 95L169.647 81.875H171.497L176.847 94.05H175.972L181.397 81.875H183.147L177.297 95H175.472ZM190.855 95.125C189.489 95.125 188.289 94.8417 187.255 94.275C186.222 93.6917 185.414 92.9 184.83 91.9C184.247 90.8833 183.955 89.725 183.955 88.425C183.955 87.125 184.23 85.975 184.78 84.975C185.347 83.975 186.114 83.1917 187.08 82.625C188.064 82.0417 189.164 81.75 190.38 81.75C191.614 81.75 192.705 82.0333 193.655 82.6C194.622 83.15 195.38 83.9333 195.93 84.95C196.48 85.95 196.755 87.1083 196.755 88.425C196.755 88.5083 196.747 88.6 196.73 88.7C196.73 88.7833 196.73 88.875 196.73 88.975H185.305V87.65H195.78L195.08 88.175C195.08 87.225 194.872 86.3833 194.455 85.65C194.055 84.9 193.505 84.3167 192.805 83.9C192.105 83.4833 191.297 83.275 190.38 83.275C189.48 83.275 188.672 83.4833 187.955 83.9C187.239 84.3167 186.68 84.9 186.28 85.65C185.88 86.4 185.68 87.2583 185.68 88.225V88.5C185.68 89.5 185.897 90.3833 186.33 91.15C186.78 91.9 187.397 92.4917 188.18 92.925C188.98 93.3417 189.889 93.55 190.905 93.55C191.705 93.55 192.447 93.4083 193.13 93.125C193.83 92.8417 194.43 92.4083 194.93 91.825L195.93 92.975C195.347 93.675 194.614 94.2083 193.73 94.575C192.864 94.9417 191.905 95.125 190.855 95.125ZM200.368 95V76.45H202.143V95H200.368ZM212.432 95.125C211.165 95.125 210.024 94.8417 209.007 94.275C208.007 93.6917 207.215 92.9 206.632 91.9C206.049 90.8833 205.757 89.725 205.757 88.425C205.757 87.1083 206.049 85.95 206.632 84.95C207.215 83.95 208.007 83.1667 209.007 82.6C210.007 82.0333 211.149 81.75 212.432 81.75C213.732 81.75 214.882 82.0333 215.882 82.6C216.899 83.1667 217.69 83.95 218.257 84.95C218.84 85.95 219.132 87.1083 219.132 88.425C219.132 89.725 218.84 90.8833 218.257 91.9C217.69 92.9 216.899 93.6917 215.882 94.275C214.865 94.8417 213.715 95.125 212.432 95.125ZM212.432 93.55C213.382 93.55 214.224 93.3417 214.957 92.925C215.69 92.4917 216.265 91.8917 216.682 91.125C217.115 90.3417 217.332 89.4417 217.332 88.425C217.332 87.3917 217.115 86.4917 216.682 85.725C216.265 84.9583 215.69 84.3667 214.957 83.95C214.224 83.5167 213.39 83.3 212.457 83.3C211.524 83.3 210.69 83.5167 209.957 83.95C209.224 84.3667 208.64 84.9583 208.207 85.725C207.774 86.4917 207.557 87.3917 207.557 88.425C207.557 89.4417 207.774 90.3417 208.207 91.125C208.64 91.8917 209.224 92.4917 209.957 92.925C210.69 93.3417 211.515 93.55 212.432 93.55ZM229.531 95.125C228.397 95.125 227.372 94.8667 226.456 94.35C225.539 93.8167 224.806 93.0583 224.256 92.075C223.722 91.075 223.456 89.8583 223.456 88.425C223.456 86.9917 223.722 85.7833 224.256 84.8C224.789 83.8 225.514 83.0417 226.431 82.525C227.347 82.0083 228.381 81.75 229.531 81.75C230.781 81.75 231.897 82.0333 232.881 82.6C233.881 83.15 234.664 83.9333 235.231 84.95C235.797 85.95 236.081 87.1083 236.081 88.425C236.081 89.7583 235.797 90.925 235.231 91.925C234.664 92.925 233.881 93.7083 232.881 94.275C231.897 94.8417 230.781 95.125 229.531 95.125ZM222.756 99.85V81.875H224.456V85.825L224.281 88.45L224.531 91.1V99.85H222.756ZM229.406 93.55C230.339 93.55 231.172 93.3417 231.906 92.925C232.639 92.4917 233.222 91.8917 233.656 91.125C234.089 90.3417 234.306 89.4417 234.306 88.425C234.306 87.4083 234.089 86.5167 233.656 85.75C233.222 84.9833 232.639 84.3833 231.906 83.95C231.172 83.5167 230.339 83.3 229.406 83.3C228.472 83.3 227.631 83.5167 226.881 83.95C226.147 84.3833 225.564 84.9833 225.131 85.75C224.714 86.5167 224.506 87.4083 224.506 88.425C224.506 89.4417 224.714 90.3417 225.131 91.125C225.564 91.8917 226.147 92.4917 226.881 92.925C227.631 93.3417 228.472 93.55 229.406 93.55ZM256.099 81.75C257.166 81.75 258.091 81.9583 258.874 82.375C259.674 82.775 260.291 83.3917 260.724 84.225C261.174 85.0583 261.399 86.1083 261.399 87.375V95H259.624V87.55C259.624 86.1667 259.291 85.125 258.624 84.425C257.974 83.7083 257.049 83.35 255.849 83.35C254.949 83.35 254.166 83.5417 253.499 83.925C252.849 84.2917 252.341 84.8333 251.974 85.55C251.624 86.25 251.449 87.1 251.449 88.1V95H249.674V87.55C249.674 86.1667 249.341 85.125 248.674 84.425C248.007 83.7083 247.074 83.35 245.874 83.35C244.991 83.35 244.216 83.5417 243.549 83.925C242.882 84.2917 242.366 84.8333 241.999 85.55C241.649 86.25 241.474 87.1 241.474 88.1V95H239.699V81.875H241.399V85.425L241.124 84.8C241.524 83.85 242.166 83.1083 243.049 82.575C243.949 82.025 245.007 81.75 246.224 81.75C247.507 81.75 248.599 82.075 249.499 82.725C250.399 83.3583 250.982 84.3167 251.249 85.6L250.549 85.325C250.932 84.2583 251.607 83.4 252.574 82.75C253.557 82.0833 254.732 81.75 256.099 81.75ZM271.788 95.125C270.421 95.125 269.221 94.8417 268.188 94.275C267.154 93.6917 266.346 92.9 265.763 91.9C265.179 90.8833 264.888 89.725 264.888 88.425C264.888 87.125 265.163 85.975 265.713 84.975C266.279 83.975 267.046 83.1917 268.013 82.625C268.996 82.0417 270.096 81.75 271.313 81.75C272.546 81.75 273.638 82.0333 274.588 82.6C275.554 83.15 276.313 83.9333 276.863 84.95C277.413 85.95 277.688 87.1083 277.688 88.425C277.688 88.5083 277.679 88.6 277.663 88.7C277.663 88.7833 277.663 88.875 277.663 88.975H266.238V87.65H276.713L276.013 88.175C276.013 87.225 275.804 86.3833 275.388 85.65C274.988 84.9 274.438 84.3167 273.738 83.9C273.038 83.4833 272.229 83.275 271.313 83.275C270.413 83.275 269.604 83.4833 268.888 83.9C268.171 84.3167 267.613 84.9 267.213 85.65C266.813 86.4 266.613 87.2583 266.613 88.225V88.5C266.613 89.5 266.829 90.3833 267.263 91.15C267.713 91.9 268.329 92.4917 269.113 92.925C269.913 93.3417 270.821 93.55 271.838 93.55C272.638 93.55 273.379 93.4083 274.063 93.125C274.763 92.8417 275.363 92.4083 275.863 91.825L276.863 92.975C276.279 93.675 275.546 94.2083 274.663 94.575C273.796 94.9417 272.838 95.125 271.788 95.125ZM288.001 81.75C289.067 81.75 290.001 81.9583 290.801 82.375C291.617 82.775 292.251 83.3917 292.701 84.225C293.167 85.0583 293.401 86.1083 293.401 87.375V95H291.626V87.55C291.626 86.1667 291.276 85.125 290.576 84.425C289.892 83.7083 288.926 83.35 287.676 83.35C286.742 83.35 285.926 83.5417 285.226 83.925C284.542 84.2917 284.009 84.8333 283.626 85.55C283.259 86.25 283.076 87.1 283.076 88.1V95H281.301V81.875H283.001V85.475L282.726 84.8C283.142 83.85 283.809 83.1083 284.726 82.575C285.642 82.025 286.734 81.75 288.001 81.75ZM302.345 95.125C301.112 95.125 300.162 94.7917 299.495 94.125C298.829 93.4583 298.495 92.5167 298.495 91.3V78.975H300.27V91.2C300.27 91.9667 300.462 92.5583 300.845 92.975C301.245 93.3917 301.812 93.6 302.545 93.6C303.329 93.6 303.979 93.375 304.495 92.925L305.12 94.2C304.77 94.5167 304.345 94.75 303.845 94.9C303.362 95.05 302.862 95.125 302.345 95.125ZM296.145 83.35V81.875H304.27V83.35H296.145Z" fill="white"/>
<defs>
<linearGradient id="paint0_linear_450_285" x1="-7.9437e-07" y1="-5.56883e-06" x2="152.649" y2="129.742" gradientUnits="userSpaceOnUse">
<stop stop-color="#222EE9"/>
<stop offset="0.590373" stop-color="#06DBFB"/>
<stop offset="1" stop-color="#00FFFF"/>
</linearGradient>
<linearGradient id="paint1_linear_450_285" x1="-2.55846e-06" y1="-5.18202e-06" x2="152.649" y2="129.742" gradientUnits="userSpaceOnUse">
<stop stop-color="#222EE9"/>
<stop offset="0.590373" stop-color="#06DBFB"/>
<stop offset="1" stop-color="#00FFFF"/>
</linearGradient>
<clipPath id="clip0_450_285">
<rect width="124" height="142" fill="white"/>
</clipPath>
</defs>
</svg>
