<svg width="15" height="13" viewBox="0 0 15 13" fill="none" xmlns="http://www.w3.org/2000/svg">
<path fill-rule="evenodd" clip-rule="evenodd" d="M1 2.78572V10.2143C1 10.7068 1.19566 11.1792 1.54394 11.5275C1.89223 11.8758 2.3646 12.0714 2.85714 12.0714H12.1429C12.6354 12.0714 13.1078 11.8758 13.4561 11.5275C13.8043 11.1792 14 10.7068 14 10.2143V2.78572C14 2.29317 13.8043 1.8208 13.4561 1.47252C13.1078 1.12424 12.6354 0.928574 12.1429 0.928574H2.85714C2.3646 0.928574 1.89223 1.12424 1.54394 1.47252C1.19566 1.8208 1 2.29317 1 2.78572Z" stroke="white" stroke-linecap="round" stroke-linejoin="round"/>
<path d="M2.85718 3.71399L7.50003 6.4997L12.1429 3.71399" stroke="white" stroke-linecap="round" stroke-linejoin="round"/>
</svg>
