<svg width="13" height="13" viewBox="0 0 13 13" fill="none" xmlns="http://www.w3.org/2000/svg">
<path d="M7.97256 0.825284C7.98603 0.774747 8.00933 0.727362 8.04113 0.685837C8.07293 0.644312 8.1126 0.609463 8.15788 0.583282C8.20316 0.557101 8.25315 0.540102 8.305 0.533256C8.35685 0.52641 8.40954 0.529852 8.46006 0.543386C9.42127 0.794123 10.2983 1.29659 11.0007 1.99903C11.7031 2.70147 12.2056 3.57848 12.4563 4.53971C12.4698 4.59024 12.4733 4.64293 12.4664 4.69478C12.4596 4.74663 12.4426 4.79663 12.4164 4.84191C12.3902 4.88718 12.3554 4.92686 12.3138 4.95866C12.2723 4.99046 12.2249 5.01376 12.1744 5.02723C12.1409 5.03616 12.1063 5.04063 12.0716 5.0405C11.9839 5.04055 11.8987 5.01165 11.8291 4.95827C11.7595 4.9049 11.7095 4.83004 11.6869 4.74534C11.4716 3.91966 11.0401 3.16633 10.4368 2.56297C9.83342 1.95962 9.0801 1.52807 8.25445 1.3128C8.20391 1.29933 8.15653 1.27603 8.115 1.24423C8.07348 1.21243 8.03863 1.17275 8.01245 1.12748C7.98627 1.0822 7.96927 1.0322 7.96243 0.980351C7.95558 0.928499 7.95902 0.875805 7.97256 0.825284ZM7.72383 3.43534C8.68889 3.69269 9.30706 4.31088 9.56441 5.27597C9.58706 5.36068 9.63706 5.43553 9.70662 5.48891C9.77619 5.54228 9.86143 5.57119 9.94911 5.57113C9.98382 5.57126 10.0184 5.5668 10.0519 5.55787C10.1025 5.54439 10.1498 5.52109 10.1914 5.48929C10.2329 5.45749 10.2677 5.41782 10.2939 5.37254C10.3201 5.32726 10.3371 5.27727 10.3439 5.22541C10.3508 5.17356 10.3473 5.12087 10.3338 5.07035C10.0022 3.82933 9.17043 2.99756 7.92944 2.66592C7.87892 2.65242 7.82624 2.649 7.7744 2.65586C7.72256 2.66272 7.67258 2.67972 7.62731 2.7059C7.53588 2.75876 7.4692 2.84578 7.44194 2.94782C7.41467 3.04985 7.42905 3.15853 7.48192 3.24996C7.53478 3.34139 7.6218 3.40807 7.72383 3.43534ZM12.9929 9.86926C12.8792 10.7363 12.4537 11.5324 11.7959 12.1085C11.1381 12.6847 10.293 13.0016 9.41849 13C4.22506 13 6.61429e-06 8.77483 6.61429e-06 3.58126C-0.00166865 2.70707 0.314942 1.86217 0.890698 1.20437C1.46645 0.54657 2.26198 0.120869 3.12867 0.00678312C3.32818 -0.0174631 3.53017 0.0236764 3.70431 0.124023C3.87845 0.22437 4.01533 0.378507 4.0944 0.563284L5.4939 3.68739C5.5557 3.82882 5.58126 3.98342 5.56829 4.13722C5.55532 4.29101 5.50422 4.43915 5.41962 4.56824C5.41108 4.58138 5.40178 4.594 5.39176 4.60604L3.99424 6.26825C3.98576 6.28548 3.98134 6.30443 3.98134 6.32364C3.98134 6.34284 3.98576 6.36179 3.99424 6.37902C4.50231 7.41906 5.59273 8.50155 6.64734 9.00897C6.66494 9.017 6.68418 9.02082 6.70352 9.02013C6.72286 9.01944 6.74177 9.01426 6.75877 9.00499L8.39639 7.61208C8.40808 7.6019 8.42049 7.59259 8.43353 7.58422C8.56204 7.49854 8.70989 7.44627 8.86369 7.43214C9.0175 7.41801 9.17239 7.44247 9.31436 7.5033L12.4477 8.90749C12.63 8.98829 12.7814 9.12564 12.8796 9.29921C12.9778 9.47278 13.0175 9.67336 12.9929 9.87125V9.86926ZM12.2042 9.77109C12.2065 9.74336 12.1999 9.71562 12.1855 9.69182C12.1711 9.66801 12.1496 9.64934 12.124 9.63843L8.99002 8.23425C8.9729 8.22764 8.95455 8.22481 8.93623 8.22596C8.91791 8.2271 8.90006 8.23219 8.88389 8.24088L7.24693 9.63379C7.235 9.64374 7.22239 9.65303 7.20979 9.66165C7.07627 9.75069 6.92194 9.80361 6.76187 9.81523C6.6018 9.82685 6.44145 9.79679 6.29646 9.72798C5.07869 9.13964 3.8649 7.93709 3.27658 6.73057C3.20738 6.58641 3.17658 6.42684 3.18715 6.26729C3.19773 6.10774 3.24932 5.95362 3.33694 5.81987C3.34548 5.80656 3.35501 5.79392 3.36546 5.78206L4.76231 4.11985C4.77029 4.10248 4.77443 4.08359 4.77443 4.06447C4.77443 4.04535 4.77029 4.02645 4.76231 4.00908L3.36546 0.882327C3.35624 0.857233 3.33965 0.835509 3.31788 0.820004C3.2961 0.804499 3.27014 0.795935 3.24342 0.795436H3.22816C2.55357 0.885174 1.93471 1.21738 1.48713 1.73003C1.03955 2.24268 0.793859 2.90071 0.795935 3.58126C0.795935 8.33573 4.66415 12.204 9.41849 12.204C10.0991 12.2061 10.7572 11.9603 11.2699 11.5126C11.7825 11.0649 12.1147 10.4458 12.2042 9.77109Z" fill="white"/>
</svg>
